<svg id="Layer_1" xmlns="http://www.w3.org/2000/svg" viewBox="0 0 792 612">
    <style>
        .st0{fill:#8a8a8d}.st1{fill:#0093c9}
    </style>
    <path class="st0" d="M252.8 224.6h62.9c8.4-14 32-31.9 40.6-33.9-34.5.1-69 .3-103.4.4l-.1 33.5z"/>
    <path class="st0" d="M237.4 190.9c-11.3.1-22.6.1-33.9.2-4 .9-14.6 3.7-21.8 13.4-5.6 7.5-6.2 15.5-6.7 21.6-1.1 15.6 4.9 20.7 5 36 0 5.8-.8 14.2-5 24.5h-23.5v38.6h21.8c5.2 8.3 6.7 15.2 7.1 19.7 1.7 16.9-8.4 23.8-7.1 43.9.3 5.1.8 11.6 5 18.4 6 9.8 15.8 13.7 20.1 15.1h214.4c49.4-20.9 82.8-64.4 85.4-112.2 2-37.7-15.7-66.1-23.5-77.1h-39.8c4.2 4.5 31.6 35 26.8 79.4-5.7 52.2-51 76.7-54.7 78.5H212.2c-1.3-3.1-2.9-8-3.6-14-1.2-11.3 1.9-18.4 3.6-28.9 1.1-6.6 1.8-16.3 0-28.7-.7-.7-4.9-5-4.8-11.7.1-6.9 4.7-11.1 5.4-11.7 1.3-11 .7-19.6 0-25.3-1.5-12.2-4.6-18.5-3.8-29.7.6-7.1 2.4-12.7 3.8-16.1h24.3c.2-11.4.3-22.6.3-33.9z"/>
    <g>
        <path class="st1" d="M538.6 388.5h-60.7c-4.3 8.6-35.5 32.6-42.8 33.9 34.5-.1 69-.3 103.4-.4l.1-33.5z"/>
        <path class="st1" d="M554.1 422.2c11.3-.1 22.6-.1 33.9-.2 2.8-.5 13.8-3 21.8-13.4 9.4-12.3 7.1-26.2 6.7-28.5-2.3-6-5.4-16.2-5-29.1.3-10.6 2.9-19 5-24.5H640v-38.6h-21.8c-5.2-8.3-6.7-15.2-7.1-19.7-1.7-16.9 8.4-23.8 7.1-43.9-.3-5.1-.8-11.6-5-18.4-6-9.8-15.8-13.7-20.1-15.1H378.7c-49.4 20.9-82.8 64.4-85.4 112.2-2 37.7 15.7 66.1 23.5 77.1h43.4c-3.7-3.6-34.9-34.6-29.7-81.2 5.7-51.6 50.8-75.1 54-76.7h194.8c1.3 3.1 2.9 8 3.6 14 1.2 11.3-1.9 18.4-3.6 28.9-1.1 6.6-1.8 16.3 0 28.7.7.7 4.9 5 4.8 11.7-.1 6.9-4.7 11.1-5.4 11.7-1.3 11-.7 19.6 0 25.3 1.5 12.2 4.6 18.5 3.8 29.7-.6 7.1-2.4 12.7-3.8 16.1h-24.3c-.3 11.5-.3 22.7-.3 33.9z"/>
    </g>
</svg>
